<svg id="Layer_1" height="512" viewBox="0 0 512 512" width="512" xmlns="http://www.w3.org/2000/svg" data-name="Layer 1"><path d="m159.667 489a6 6 0 0 0 0 12h261.592a6 6 0 0 0 0-12z"/><path d="m496 486h-42.709a6 6 0 1 0 0 12h42.709a6 6 0 0 0 0-12z"/><path d="m174.8 466.1a29.85 29.85 0 0 0 21.17-8.755l38.3-38.3 2.371 2.371a6 6 0 0 0 8.485 0l175.09-175.091a6 6 0 0 0 0-8.486l-2.37-2.37 38.3-38.3a29.936 29.936 0 0 0 0-42.34l-134.855-134.863a29.972 29.972 0 0 0 -42.34 0l-38.3 38.3-2.37-2.371a6 6 0 0 0 -8.485 0l-175.096 175.094a6 6 0 0 0 0 8.485l2.371 2.371-38.3 38.3a29.94 29.94 0 0 0 0 42.341l134.854 134.858a29.847 29.847 0 0 0 21.175 8.756zm112.636-437.649a17.961 17.961 0 0 1 25.37 0l134.855 134.856a17.938 17.938 0 0 1 0 25.37l-38.3 38.3-160.228-160.223zm-53.4 40.175 173.45 173.452-166.6 166.606-173.457-173.453zm-212.036 232.692a17.822 17.822 0 0 1 5.254-12.685l38.3-38.3 160.228 160.222-38.3 38.3a17.958 17.958 0 0 1 -25.369 0l-134.859-134.855a17.821 17.821 0 0 1 -5.254-12.682z"/><path d="m245.139 103.623a6 6 0 1 0 -8.484-8.486l-1.648 1.647a6 6 0 0 0 8.485 8.486z"/><path d="m218.5 113.29-73.03 73.031a6 6 0 0 0 8.486 8.485l73.03-73.031a6 6 0 0 0 -8.485-8.485z"/></svg>