<svg id="Layer_1" enable-background="new 0 0 24 24" height="512" viewBox="0 0 24 24" width="512" xmlns="http://www.w3.org/2000/svg"><g><g><path d="m.5 4c-.276 0-.5-.224-.5-.5v-1c0-1.378 1.122-2.5 2.5-2.5h1c.276 0 .5.224.5.5s-.224.5-.5.5h-1c-.827 0-1.5.673-1.5 1.5v1c0 .276-.224.5-.5.5z"/></g><g><path d="m19.5 4c-.276 0-.5-.224-.5-.5v-1c0-.827-.673-1.5-1.5-1.5h-1c-.276 0-.5-.224-.5-.5s.224-.5.5-.5h1c1.378 0 2.5 1.122 2.5 2.5v1c0 .276-.224.5-.5.5z"/></g><g><path d="m12.5 1h-5c-.276 0-.5-.224-.5-.5s.224-.5.5-.5h5c.276 0 .5.224.5.5s-.224.5-.5.5z"/></g><g><path d="m10.5 20h-3c-.276 0-.5-.224-.5-.5s.224-.5.5-.5h3c.276 0 .5.224.5.5s-.224.5-.5.5z"/></g><g><path d="m3.5 20h-1c-1.378 0-2.5-1.122-2.5-2.5v-1c0-.276.224-.5.5-.5s.5.224.5.5v1c0 .827.673 1.5 1.5 1.5h1c.276 0 .5.224.5.5s-.224.5-.5.5z"/></g><g><path d="m.5 13c-.276 0-.5-.224-.5-.5v-5c0-.276.224-.5.5-.5s.5.224.5.5v5c0 .276-.224.5-.5.5z"/></g><g><path d="m19.5 11c-.276 0-.5-.224-.5-.5v-3c0-.276.224-.5.5-.5s.5.224.5.5v3c0 .276-.224.5-.5.5z"/></g></g><g><path d="m13.902 24c-.36 0-.652-.292-.652-.652v-13.696c0-.36.292-.652.652-.652.174 0 .338.068.461.191l9.433 9.433c.123.122.193.29.193.463 0 .36-.292.652-.652.652h-5.049l-3.917 4.062c-.127.13-.292.199-.469.199zm.348-13.508v11.995l3.466-3.594c.094-.098.224-.153.36-.153h4.421zm8.844 8.844h.01z"/></g></svg>