<svg height="512pt" viewBox="0 -28 512.00034 512" width="512pt" xmlns="http://www.w3.org/2000/svg"><path d="m510.125 408.007812-45.382812-136.742187c-4.769532-14.367187-18.144532-24.019531-33.285157-24.019531h-24.414062c-.105469-1.152344-.28125-2.308594-.574219-3.449219-1.4375-5.589844-4.964844-10.285156-9.933594-13.21875l-4.703125-2.78125 23.429688-37.074219c10.195312-16.128906 25.539062-28.429687 44.378906-35.570312 16.933594-6.421875 31.339844-18.558594 40.570313-34.175782 11.253906-19.050781 14.148437-41.269531 8.144531-62.574218-6-21.292969-20.097657-38.742188-39.695313-49.136719-17.597656-9.3320312-38.011718-11.710937-57.476562-6.699219-19.472656 5.011719-36.199219 16.949219-47.105469 33.617188-10.757813 16.445312-15.125 36.167968-12.296875 55.53125 2.867188 19.617187-.390625 38.644531-9.417969 55.023437l-21.546875 39.097657-4.707031-2.78125c-10.253906-6.058594-23.527344-2.648438-29.585937 7.609374l-8.386719 14.1875-21.195313-12.527343c-13.355468-7.890625-30.644531-3.445313-38.539062 9.914062l-12.765625 21.609375c-2.8125 4.753906-1.234375 10.886719 3.519531 13.695313l16.421875 9.699219h-145.035156c-15.136719 0-28.511719 9.65625-33.28125 24.023437l-45.382813 136.742187c-3.699218 11.144532-1.878906 22.996094 4.992188 32.519532 6.871094 9.519531 17.550781 14.984375 29.292968 14.984375h439.671876c11.742187 0 22.421874-5.464844 29.292968-14.984375 6.871094-9.523438 8.691406-21.375 4.996094-32.519532zm-150.246094-251.617187c11.148438-20.230469 15.191406-43.597656 11.6875-67.570313-2.121094-14.527343 1.164063-29.332031 9.246094-41.691406 16.839844-25.730468 51.308594-34.601562 78.476562-20.195312 14.722657 7.8125 25.3125 20.910156 29.816407 36.894531 4.507812 15.992187 2.335937 32.675781-6.113281 46.976563-7.027344 11.890624-17.554688 20.761718-30.441407 25.648437-22.925781 8.6875-41.664062 23.761719-54.191406 43.582031l-23.753906 37.585938-1.832031-1.085938-34.734376-20.519531zm-64.523437 58.632813 8.382812-14.183594c.28125-.476563.6875-.664063.980469-.738282.296875-.078124.742188-.109374 1.21875.171876l40.210938 23.761718 26.636718 15.738282c.003906 0 .003906 0 .003906.003906l13.574219 8.019531c.472657.277344.660157.6875.734375.980469.078125.292968.109375.742187-.171875 1.214844l-1.269531 2.152343c-.003906.003907-.007812.007813-.011719.015625l-7.101562 12.019532zm-59.734375-2.613282c2.28125-3.863281 7.28125-5.148437 11.144531-2.867187l29.804687 17.609375s.003907.003906.003907.003906l50.203125 29.664062 80.011718 47.273438c1.871094 1.105469 3.199219 2.875 3.738282 4.980469.542968 2.105469.230468 4.292969-.875 6.164062l-7.683594 13.003907-134.726562-79.605469c0-.003907 0-.003907-.003907-.003907l-39.300781-23.222656zm253.292968 216.414063c-3.066406 4.25-7.835937 6.6875-13.078124 6.6875h-439.671876c-5.242187 0-10.007812-2.4375-13.078124-6.6875-3.066407-4.25-3.878907-9.542969-2.226563-14.519531l45.382813-136.738282c2.046874-6.175781 7.792968-10.324218 14.300781-10.324218h178.878906l140.984375 83.304687c.347656.207031.710938.382813 1.078125.542969.105469.046875.214844.089844.324219.132812.277344.109375.5625.207032.847656.292969.109375.03125.214844.066406.320312.09375.378907.097656.765626.179687 1.152344.234375.070313.007812.140625.007812.210938.019531.324218.035157.648437.058594.976562.0625.058594.003907.117188.011719.175782.011719.074218 0 .148437-.011719.222656-.011719.257812-.007812.515625-.023437.773437-.050781.125-.011719.25-.019531.375-.039062.375-.050782.75-.117188 1.121094-.214844 2.566406-.65625 4.769531-2.3125 6.117187-4.597656l12.769532-21.609376c3.394531-5.746093 4.617187-12.363281 3.539062-18.871093-.136718-.820313-.304687-1.636719-.511718-2.449219-1.871094-7.277344-6.46875-13.394531-12.9375-17.214844l-21.199219-12.527344 4.203125-7.105468h31.492187c6.507813 0 12.253907 4.144531 14.304688 10.320312l45.382812 136.738282v.003906c1.648438 4.972656.835938 10.265625-2.230469 14.515625zm0 0"/><path d="m447.578125 59.023438c5.96875 2.980468 9.574219 7.070312 11.023437 12.496093 1.976563 7.398438-.464843 15.808594-3.566406 20.496094-3.050781 4.601563-1.789062 10.808594 2.8125 13.855469 1.699219 1.125 3.617188 1.664062 5.515625 1.664062 3.238281 0 6.421875-1.574218 8.34375-4.476562 5.265625-7.953125 10.054688-22.332032 6.214844-36.703125-2.929687-10.964844-10.328125-19.6875-21.398437-25.222657-4.941407-2.46875-10.945313-.46875-13.417969 4.472657-2.46875 4.941406-.46875 10.945312 4.472656 13.417969zm0 0"/><path d="m412.738281 43c.25.601562.558594 1.183594.921875 1.722656.367188.550782.789063 1.058594 1.25 1.519532.457032.460937.96875.878906 1.519532 1.25.539062.359374 1.117187.671874 1.71875.921874.609374.25 1.238281.4375 1.871093.566407.648438.132812 1.308594.191406 1.960938.191406.648437 0 1.308593-.058594 1.949219-.191406.640624-.128907 1.269531-.316407 1.867187-.566407.609375-.25 1.191406-.5625 1.730469-.921874.550781-.371094 1.058594-.789063 1.519531-1.25.460937-.460938.878906-.96875 1.242187-1.519532.359376-.539062.667969-1.121094.917969-1.722656.25-.605469.441407-1.238281.570313-1.867188.128906-.648437.199218-1.3125.199218-1.960937s-.070312-1.308594-.199218-1.949219-.320313-1.269531-.570313-1.871094c-.25-.609374-.558593-1.1875-.917969-1.726562-.363281-.550781-.78125-1.0625-1.242187-1.519531-.460937-.460938-.96875-.882813-1.519531-1.242188-.539063-.359375-1.121094-.667969-1.730469-.917969-.597656-.25-1.226563-.441406-1.867187-.570312-1.292969-.261719-2.621094-.261719-3.910157 0-.632812.128906-1.261719.320312-1.871093.570312-.601563.25-1.179688.558594-1.71875.917969-.550782.359375-1.0625.78125-1.519532 1.242188-.460937.457031-.882812.96875-1.25 1.519531-.363281.539062-.671875 1.117188-.921875 1.726562-.25.601563-.441406 1.230469-.570312 1.871094-.128907.640625-.1875 1.300782-.1875 1.949219s.058593 1.3125.1875 1.960937c.128906.628907.320312 1.257813.570312 1.867188zm0 0"/><path d="m109.941406 312.863281h128.527344c5.523438 0 10-4.476562 10-9.996093 0-5.523438-4.476562-10-10-10h-128.527344c-5.519531 0-9.996094 4.476562-9.996094 10 0 5.519531 4.476563 9.996093 9.996094 9.996093zm0 0"/><path d="m95.289062 361.378906h201.921876c5.523437 0 10-4.476562 10-10 0-5.523437-4.476563-10-10-10h-201.921876c-5.523437 0-10 4.476563-10 10 0 5.523438 4.476563 10 10 10zm0 0"/><path d="m389.171875 389.890625h-314.574219c-5.523437 0-10 4.480469-10 10 0 5.523437 4.476563 10 10 10h314.574219c5.519531 0 10-4.476563 10-10 0-5.519531-4.480469-10-10-10zm0 0"/></svg>